# xmcd
#
# Track frame offsets: 
#        150
#        18340
#        42575
#        62360
#        78683
#        109490
#        129263
#        148120
#        173443
#        188843
#
# Disc length: 2730 seconds
#
# Revision: 0
# Processed by: cddbd v1.5.1PL2 Copyright (c) Steve Scherf et al.
# Submitted via: ExactAudioCopy v0.95a5
#
DISCID=840aa80a
DTITLE=Maureen Walsh - Take It From Me
DYEAR=1991
DGENRE=R&B
TTITLE0=Where has all the love gone
TTITLE1=Thinking of you
TTITLE2=Love conquers all
TTITLE3=It's my life
TTITLE4=Mesmerise Me
TTITLE5=Never Say No
TTITLE6=I'll fight it
TTITLE7=Don't hold back
TTITLE8=Twilight Zone
TTITLE9=Lies and Deception
EXTD=
EXTT0=
EXTT1=
EXTT2=
EXTT3=
EXTT4=
EXTT5=
EXTT6=
EXTT7=
EXTT8=
EXTT9=
PLAYORDER=
